<svg width="24" height="24" viewBox="0 0 24 24" fill="none" xmlns="http://www.w3.org/2000/svg"><path d="M12 5.5C11.4337 5.5 10.9337 5.72557 10.5127 6.04785C10.4287 6.01632 10.3397 6.00011 10.25 6H1.75C1.55109 6.00002 1.36034 6.07904 1.21969 6.21969C1.07904 6.36034 1.00002 6.55109 1 6.75V8.5C1 11.2524 3.24759 13.5 6 13.5C8.75241 13.5 11 11.2524 11 8.5V8C11 7.43883 11.4388 7 12 7C12.5612 7 13 7.43883 13 8V8.5C13 11.2524 15.2476 13.5 18 13.5C20.7524 13.5 23 11.2524 23 8.5V6.75C23 6.55109 22.921 6.36034 22.7803 6.21969C22.6397 6.07904 22.4489 6.00002 22.25 6H13.75C13.6606 6.00023 13.572 6.01643 13.4883 6.04785C13.0671 5.72527 12.5666 5.5 12 5.5ZM2.5 7.5H9.5V8V8.5C9.5 10.4416 7.94159 12 6 12C4.05841 12 2.5 10.4416 2.5 8.5V7.5ZM14.5 7.5H21.5V8.5C21.5 10.4416 19.9416 12 18 12C16.0584 12 14.5 10.4416 14.5 8.5V8V7.5ZM11.9043 14.5C10.6614 14.5 9.46917 14.9086 8.48145 15.623C7.58348 16.2723 6.73737 16.8895 6.05371 17.127C5.37005 17.3644 4.94787 17.3691 4.27344 16.7129C4.1547 16.5973 4.00101 16.5242 3.83638 16.5052C3.67175 16.4861 3.50544 16.5221 3.36343 16.6076C3.22143 16.693 3.11172 16.8231 3.05145 16.9775C2.99118 17.1319 2.98373 17.3019 3.03027 17.4609C3.62368 19.4813 5.30088 20.49 7.07422 20.5615C8.70943 20.6275 10.4457 20.0039 12 19.0762C13.5543 20.0039 15.2906 20.6275 16.9258 20.5615C18.6991 20.49 20.3763 19.4813 20.9697 17.4609C21.0163 17.3019 21.0088 17.1319 20.9486 16.9775C20.8883 16.8231 20.7786 16.693 20.6366 16.6076C20.4946 16.5221 20.3283 16.4861 20.1636 16.5052C19.999 16.5242 19.8453 16.5973 19.7266 16.7129C19.0521 17.3691 18.6299 17.3644 17.9463 17.127C17.2626 16.8895 16.4165 16.2723 15.5186 15.623C14.5308 14.9086 13.3386 14.5 12.0957 14.5H12H11.9043ZM11.9043 16H12H12.0957C13.0099 16 13.8964 16.3003 14.6396 16.8379C15.5177 17.4727 16.4169 18.1837 17.4541 18.5439C17.7663 18.6524 18.1185 18.6092 18.46 18.6182C18.0246 18.9019 17.4959 19.038 16.8652 19.0635C15.5415 19.1169 13.8454 18.5533 12.4082 17.6211C12.2867 17.5422 12.1449 17.5003 12 17.5003C11.8551 17.5003 11.7133 17.5422 11.5918 17.6211C10.1546 18.5533 8.45855 19.1169 7.13477 19.0635C6.50414 19.038 5.97535 18.9019 5.54004 18.6182C5.88147 18.6092 6.23371 18.6524 6.5459 18.5439C7.58311 18.1837 8.48232 17.4727 9.36035 16.8379C10.1036 16.3003 10.9901 16 11.9043 16Z" fill="white" fill-opacity="0.5"></path></svg>