<svg width="55" height="55" viewBox="6.875 6.875 48.125 48.125" fill="none" xmlns="http://www.w3.org/2000/svg"><path opacity="0.35" d="M45.8334 13.75C45.8334 11.2177 43.7823 9.16663 41.25 9.16663H11.4583C8.92604 9.16663 6.875 11.2177 6.875 13.75V38.9583C6.875 42.7556 9.95271 45.8333 13.75 45.8333H38.9583C42.7556 45.8333 45.8334 42.7556 45.8334 38.9583V13.75Z" fill="#FD346E"></path><path d="M38.9583 6.875H13.75C9.95271 6.875 6.875 9.95271 6.875 13.75V20.625H45.8334V13.75C45.8334 9.95271 42.7556 6.875 38.9583 6.875ZM13.75 16.0417C12.485 16.0417 11.4583 15.015 11.4583 13.75C11.4583 12.485 12.485 11.4583 13.75 11.4583C15.015 11.4583 16.0417 12.485 16.0417 13.75C16.0417 15.015 15.015 16.0417 13.75 16.0417ZM20.625 16.0417C19.36 16.0417 18.3333 15.015 18.3333 13.75C18.3333 12.485 19.36 11.4583 20.625 11.4583C21.89 11.4583 22.9167 12.485 22.9167 13.75C22.9167 15.015 21.89 16.0417 20.625 16.0417ZM38.9583 16.0417C38.5321 16.0417 30.2179 16.0417 29.7917 16.0417C28.5267 16.0417 27.5 15.015 27.5 13.75C27.5 12.485 28.5267 11.4583 29.7917 11.4583C30.2179 11.4583 38.5321 11.4583 38.9583 11.4583C40.2233 11.4583 41.25 12.485 41.25 13.75C41.25 15.015 40.2233 16.0417 38.9583 16.0417Z" fill="#FD346E"></path><path opacity="0.35" d="M34.375 43.5416H55V52.7083C55 53.9733 53.9733 55 52.7083 55H36.6667C35.4017 55 34.375 53.9733 34.375 52.7083V43.5416Z" fill="#FD346E"></path><path d="M50.4167 38.9583C48.5169 38.9583 47.0571 37.2739 47.3252 35.3925L47.6392 33.1925C47.8958 31.3981 46.5025 29.7916 44.6875 29.7916C42.8725 29.7916 41.4792 31.3981 41.7358 33.1948L42.0498 35.3948C42.3179 37.2739 40.8581 38.9583 38.9583 38.9583C36.426 38.9583 34.375 41.0093 34.375 43.5416V45.8333H43.5417H45.8333H55V43.5416C55 41.0093 52.949 38.9583 50.4167 38.9583Z" fill="white"></path></svg>