<svg width="46" height="46" viewBox="0 0 46 46" fill="none" xmlns="http://www.w3.org/2000/svg"><path d="M19.6238 1.84C14.5577 1.84 11.556 4.58639 10.5675 7.03836C7.93818 7.53809 5.58234 9.31726 4.38446 12.0696C3.15336 14.8983 3.18863 18.6811 5.11759 22.9443C4.02801 24.3874 3.40111 26.232 3.71063 28.1067C4.016 29.9563 5.28959 31.6898 7.48227 32.7247C6.62517 34.7859 6.92801 36.8065 8.06087 38.2267C9.24427 39.7103 11.149 40.5113 13.146 40.6633C13.7502 42.205 14.8454 43.2383 16.039 43.6748C17.3998 44.1725 18.7776 44.16 19.6238 44.16C20.9945 44.16 22.1994 43.5204 22.9857 42.5266C23.7574 43.5179 24.9555 44.1517 26.3692 44.1618H26.4016C27.2379 44.1618 28.6009 43.9413 29.9073 43.2687C29.1906 42.9458 28.5202 42.5422 27.9038 42.0702C27.2956 42.2395 26.7434 42.308 26.3818 42.32C24.9328 42.3099 23.9201 41.3007 23.9201 39.8655V7.5307C23.9205 3.6807 25.1144 3.68 26.3764 3.68C30.9626 3.68 33.4456 6.37412 33.9323 8.07336L34.0994 8.65914L34.7049 8.73281C36.6765 8.97293 38.3847 10.1685 39.3912 12.0103C40.9073 14.7832 40.677 18.5231 38.7533 22.5472C38.6015 22.7606 37.9826 23.5851 37.057 24.3818C37.7056 24.5851 38.3254 24.8531 38.9114 25.176C39.1543 24.935 39.3734 24.7003 39.5565 24.4896C39.8582 24.9625 40.0841 25.4972 40.2285 26.0529C40.9783 26.6352 41.6421 27.3188 42.2033 28.0852C42.4581 26.1706 41.7696 24.2174 40.649 22.8383C42.616 18.4508 42.7454 14.3122 41.0048 11.128C39.8069 8.9366 37.8213 7.45606 35.4974 6.99882C34.5415 4.74114 31.5643 1.84 26.3764 1.84C24.7804 1.84 23.6825 2.29694 22.9947 3.30625C22.9585 3.25463 22.9257 3.19949 22.8869 3.14992C22.1117 2.15911 20.8869 1.84 19.6238 1.84ZM19.6238 3.68C20.6266 3.68 21.0907 3.84142 21.4368 4.28375C21.7829 4.72607 22.0801 5.71515 22.0801 7.5307V7.5325V39.8655V39.8673C22.0793 41.368 21.0952 42.32 19.6238 42.32C18.7853 42.32 17.6313 42.2973 16.6715 41.9462C15.7116 41.5952 14.9628 41.0384 14.6159 39.6445L14.4434 38.9455H13.7246C12.0373 38.9455 10.3845 38.1871 9.50016 37.0785C8.61586 35.9699 8.34555 34.5962 9.45344 32.7498L10.0428 31.767L8.95391 31.404C6.6886 30.649 5.77011 29.2883 5.52548 27.8066C5.2825 26.335 5.82052 24.6995 6.7779 23.6469C6.79095 23.6323 6.80353 23.6173 6.81563 23.6019L7.21993 23.1635L7.21454 23.1509C7.86693 22.4726 9.34585 21.16 11.0401 21.16C12.7268 21.16 13.9583 21.5778 14.7686 21.983C15.5789 22.3881 15.9096 22.7305 15.9096 22.7305C15.9944 22.8188 16.0959 22.8893 16.2083 22.9378C16.3206 22.9864 16.4416 23.012 16.564 23.0133C16.6864 23.0145 16.8078 22.9913 16.9211 22.9451C17.0344 22.8988 17.1374 22.8304 17.2239 22.7438C17.3105 22.6573 17.3789 22.5543 17.4252 22.441C17.4714 22.3277 17.4946 22.2063 17.4934 22.0839C17.4921 21.9615 17.4665 21.8406 17.4179 21.7282C17.3693 21.6158 17.2989 21.5143 17.2106 21.4295C17.2106 21.4295 16.6213 20.8519 15.5916 20.337C14.5619 19.8222 13.0334 19.32 11.0401 19.32C8.97208 19.32 7.36932 20.4343 6.40235 21.3343C5.01579 17.8254 5.14901 14.9246 6.07173 12.8045C7.10362 10.4336 9.11968 8.99797 11.2952 8.73281L11.899 8.65914L12.0679 8.07336C12.5112 6.52905 14.9231 3.68 19.6238 3.68ZM17.4657 10.1074C17.222 10.1112 16.9898 10.2116 16.82 10.3864C16.6502 10.5612 16.5567 10.7963 16.5601 11.04C16.5601 11.3224 16.4776 12.0522 16.03 12.6374C15.5824 13.2226 14.782 13.8 12.8801 13.8C12.7582 13.7983 12.6371 13.8208 12.524 13.8663C12.4109 13.9117 12.3079 13.9792 12.2211 14.0648C12.1343 14.1504 12.0653 14.2524 12.0183 14.3649C11.9712 14.4774 11.947 14.5981 11.947 14.72C11.947 14.8419 11.9712 14.9626 12.0183 15.0751C12.0653 15.1876 12.1343 15.2896 12.2211 15.3752C12.3079 15.4608 12.4109 15.5283 12.524 15.5737C12.6371 15.6192 12.7582 15.6417 12.8801 15.64C15.1946 15.64 16.6943 14.799 17.4927 13.7551C18.291 12.7112 18.4001 11.6013 18.4001 11.04C18.4018 10.9169 18.3787 10.7947 18.3324 10.6807C18.286 10.5667 18.2172 10.4631 18.1301 10.3762C18.0429 10.2892 17.9392 10.2206 17.8251 10.1745C17.711 10.1283 17.5888 10.1055 17.4657 10.1074ZM29.4257 11.9474C29.182 11.9512 28.9498 12.0516 28.78 12.2264C28.6102 12.4012 28.5167 12.6363 28.5201 12.88C28.5201 13.9741 28.9546 15.3513 30.1247 16.4755C31.2948 17.5998 33.1735 18.4 35.8801 18.4C36.002 18.4017 36.123 18.3792 36.2362 18.3337C36.3493 18.2883 36.4523 18.2208 36.5391 18.1352C36.6259 18.0496 36.6948 17.9476 36.7419 17.8351C36.789 17.7226 36.8132 17.6019 36.8132 17.48C36.8132 17.3581 36.789 17.2374 36.7419 17.1249C36.6948 17.0124 36.6259 16.9104 36.5391 16.8248C36.4523 16.7392 36.3493 16.6717 36.2362 16.6263C36.123 16.5808 36.002 16.5583 35.8801 16.56C33.5267 16.56 32.1854 15.9036 31.4005 15.1494C30.6155 14.3953 30.3601 13.4722 30.3601 12.88C30.3618 12.7569 30.3387 12.6347 30.2924 12.5207C30.246 12.4067 30.1772 12.3031 30.0901 12.2162C30.0029 12.1292 29.8992 12.0606 29.7851 12.0145C29.671 11.9683 29.5488 11.9455 29.4257 11.9474ZM34.0401 25.76C29.4781 25.76 25.7601 29.478 25.7601 34.04C25.7601 38.602 29.4781 42.32 34.0401 42.32C35.9904 42.32 37.7835 41.636 39.2007 40.5016L44.4296 45.7305L45.7306 44.4295L40.5016 39.2006C41.6361 37.7834 42.3201 35.9903 42.3201 34.04C42.3201 29.478 38.6021 25.76 34.0401 25.76ZM11.0077 27.5982C10.7778 27.6036 10.5582 27.6949 10.3922 27.8541C10.2262 28.0133 10.1259 28.229 10.111 28.4585C10.0961 28.6881 10.1678 28.9148 10.3118 29.0942C10.4558 29.2735 10.6618 29.3924 10.8891 29.4274C13.1526 29.804 14.2445 30.9647 14.889 32.173C15.5335 33.3814 15.6401 34.7024 15.6401 34.96C15.6384 35.0819 15.6609 35.2029 15.7063 35.3161C15.7518 35.4292 15.8193 35.5322 15.9049 35.619C15.9905 35.7058 16.0925 35.7748 16.205 35.8218C16.3175 35.8689 16.4382 35.8931 16.5601 35.8931C16.682 35.8931 16.8027 35.8689 16.9152 35.8218C17.0277 35.7748 17.1297 35.7058 17.2153 35.619C17.3009 35.5322 17.3684 35.4292 17.4138 35.3161C17.4593 35.2029 17.4818 35.0819 17.4801 34.96C17.4801 34.3749 17.3614 32.897 16.5134 31.3069C15.6654 29.7169 13.9977 28.0796 11.191 27.6126C11.1306 27.6017 11.0692 27.5969 11.0077 27.5982ZM34.0401 27.6C37.6077 27.6 40.4801 30.4724 40.4801 34.04C40.4801 37.6076 37.6077 40.48 34.0401 40.48C30.4725 40.48 27.6001 37.6076 27.6001 34.04C27.6001 30.4724 30.4725 27.6 34.0401 27.6Z" fill="url(#paint0_linear_117_2590)"></path><defs><linearGradient id="paint0_linear_117_2590" x1="24.6394" y1="1.84" x2="24.6394" y2="45.7305" gradientUnits="userSpaceOnUse"><stop stop-color="white"></stop><stop offset="1" stop-color="white" stop-opacity="0"></stop></linearGradient></defs></svg>